<svg xmlns="http://www.w3.org/2000/svg" xml:space="preserve" width="2000" height="180" data-id="lg_wah2oXWqdYav0vyTuQ" data-version="1" viewBox="0 0 2000 180"><g data-padding="20"><g transform="translate(10 3.158)scale(.96491)"><rect width="212.799" height="33.9" x="514.596" y="-327.185" fill="none" rx="0" ry="0" transform="translate(423.48 473.38)"/><path fill="#d50d00" d="M940.905 167.805q0-.75.36-1.29t1.1-.84q.73-.3 1.9-.3 1.26 0 2.37.32 1.11.31 2.16 1.03v-1.41q-.21-.27-.81-.7-.6-.44-1.61-.78-1-.35-2.5-.35-2.55 0-3.98 1.22-1.42 1.21-1.42 3.22 0 1.41.66 2.4t1.75 1.52q1.1.52 2.36.52 1.14 0 2.29-.42 1.16-.42 1.96-1.29.79-.87.79-2.19l-.48-1.8q0 1.08-.53 1.91-.52.82-1.4 1.27-.89.45-2 .45-.87 0-1.55-.28-.67-.29-1.05-.86-.37-.57-.37-1.35m-1.53-8.13 1.17 1.77q.33-.24.9-.57t1.39-.57q.83-.24 1.85-.24.63 0 1.2.12t1 .39q.44.27.68.74.24.46.24 1.18v9.57h2.4v-9.9q0-1.35-.68-2.28-.67-.93-1.89-1.42-1.21-.5-2.83-.5-1.92 0-3.29.57-1.36.57-2.14 1.14m15.96 5.49q0-1.44.61-2.56.62-1.13 1.68-1.76 1.07-.63 2.42-.63 1.11 0 2.08.35.98.34 1.7.91t1.02 1.26v-3q-.72-.84-2.05-1.3-1.34-.47-2.75-.47-2.01 0-3.63.93t-2.56 2.55q-.95 1.62-.95 3.72 0 2.07.95 3.71.94 1.63 2.56 2.56t3.63.93q1.41 0 2.75-.46 1.33-.47 2.05-1.31v-3q-.3.66-1.02 1.25-.72.58-1.7.93-.97.34-2.08.34-1.35 0-2.42-.64-1.06-.65-1.68-1.76-.61-1.11-.61-2.55m15.66 6.9v-23.4h-2.4v23.4Zm6.45-8.4v8.4h2.4v-8.7q0-1.8-.59-3-.58-1.2-1.65-1.8-1.06-.6-2.5-.6t-2.54.75q-1.09.75-1.72 2.03-.63 1.27-.63 2.92h.78q0-.99.43-1.77.44-.78 1.23-1.23.8-.45 1.85-.45 1.47 0 2.2.87.74.87.74 2.58m6.9-11.11q0 .66.49 1.16.5.49 1.16.49.69 0 1.17-.49.48-.5.48-1.16 0-.69-.48-1.17t-1.17-.48q-.66 0-1.16.48-.49.48-.49 1.17m2.85 5.7h-2.4v13.8h2.4Zm10.29 14.11q2.22 0 3.85-.88 1.64-.89 2.72-2.63l-1.95-1.23q-.75 1.26-1.83 1.88-1.08.61-2.49.61t-2.4-.6-1.5-1.74-.51-2.76q.03-1.59.56-2.68.52-1.1 1.5-1.68.97-.59 2.35-.59 1.17 0 2.04.51t1.36 1.41q.5.9.5 2.13 0 .21-.09.53-.09.31-.18.46l.96-1.38h-9.9v2.04h11.79q0-.06.01-.28.02-.23.02-.44 0-2.19-.78-3.78t-2.24-2.44q-1.45-.86-3.49-.86t-3.59.9q-1.54.9-2.4 2.52-.85 1.62-.85 3.78 0 2.13.82 3.75.83 1.62 2.31 2.54 1.49.91 3.41.91m10.56-14.1h-2.7l6.6 14.85 6.6-14.85h-2.7l-3.9 9.75Zm18.1 14.1q2.22 0 3.85-.88 1.64-.89 2.72-2.63l-1.95-1.23q-.75 1.26-1.83 1.88-1.08.61-2.49.61t-2.4-.6-1.5-1.74-.51-2.76q.03-1.59.55-2.68.53-1.1 1.5-1.68.98-.59 2.36-.59 1.17 0 2.04.51t1.36 1.41q.5.9.5 2.13 0 .21-.09.53-.09.31-.18.46l.96-1.38h-9.9v2.04h11.79q0-.06.01-.28.02-.23.02-.44 0-2.19-.78-3.78t-2.24-2.44q-1.45-.86-3.49-.86t-3.59.9q-1.54.9-2.4 2.52-.85 1.62-.85 3.78 0 2.13.82 3.75.83 1.62 2.31 2.54 1.49.91 3.41.91m12.51-.3v-13.8h-2.4v13.8Zm4.17-11.16 1.32-1.98q-.54-.57-1.19-.76-.64-.2-1.39-.2-.96 0-1.89.75t-1.52 2.03q-.58 1.27-.58 2.92h1.08q0-.99.2-1.77.19-.78.7-1.23t1.41-.45q.6 0 .99.17.39.16.87.52m4.28 6.93-1.89 1.17q.39.81 1.15 1.59.77.78 1.88 1.28 1.11.49 2.49.49 2.13 0 3.43-1.2 1.31-1.2 1.31-3 0-1.23-.59-2.01-.58-.78-1.57-1.33-.99-.56-2.19-1.04-.72-.3-1.38-.63t-1.08-.75-.42-.96q0-.69.54-1.02t1.29-.33q1.08 0 1.93.51.86.51 1.43 1.29l1.92-1.23q-.42-.78-1.17-1.38t-1.73-.96q-.97-.36-2.08-.36t-2.15.39q-1.03.39-1.68 1.2-.64.81-.64 2.04 0 1.2.61 2 .62.79 1.53 1.29.92.49 1.82.85.81.3 1.53.65.72.34 1.18.84.47.49.47 1.21 0 .81-.59 1.28-.58.46-1.6.46-.84 0-1.55-.31-.7-.32-1.24-.86t-.96-1.17m22.93 4.23v-23.4h-2.4v23.4Zm6.45-8.4v8.4h2.4v-8.7q0-1.8-.58-3-.59-1.2-1.66-1.8-1.06-.6-2.5-.6t-2.53.75q-1.1.75-1.73 2.03-.63 1.27-.63 2.92h.78q0-.99.43-1.77.44-.78 1.23-1.23.8-.45 1.85-.45 1.47 0 2.21.87.73.87.73 2.58m6.89-11.11q0 .66.5 1.16.49.49 1.15.49.69 0 1.17-.49.48-.5.48-1.16 0-.69-.48-1.17t-1.17-.48q-.66 0-1.15.48-.5.48-.5 1.17m2.85 5.7h-2.4v13.8h2.4Zm6.45 14.71h-2.43q0 1.77.87 3.14.87 1.36 2.42 2.11 1.54.75 3.55.75 1.74 0 3.3-.81t2.55-2.41q.99-1.61.99-3.98v-13.5h-2.4v13.5q0 1.74-.67 2.84-.68 1.09-1.7 1.6t-2.07.51q-1.35 0-2.34-.52-.99-.53-1.53-1.38-.54-.86-.54-1.85m-2.7-7.8q0 2.22.93 3.84t2.49 2.49 3.42.87q1.74 0 3.03-.87t2.03-2.49q.73-1.62.73-3.84 0-2.25-.73-3.85-.74-1.61-2.03-2.48t-3.03-.87q-1.86 0-3.42.87t-2.49 2.48q-.93 1.6-.93 3.85m2.43 0q0-1.59.65-2.7.64-1.11 1.72-1.68t2.34-.57q.78 0 1.56.33t1.43.96q.64.63 1.03 1.55.39.91.39 2.11 0 1.59-.66 2.7t-1.68 1.68-2.07.57q-1.26 0-2.34-.57t-1.72-1.68q-.65-1.11-.65-2.7m18.28 6.9v-23.4h-2.4v23.4Zm6.45-8.4v8.4h2.4v-8.7q0-1.8-.59-3-.58-1.2-1.65-1.8-1.06-.6-2.5-.6t-2.54.75q-1.09.75-1.72 2.03-.63 1.27-.63 2.92h.78q0-.99.43-1.77.44-.78 1.23-1.23.8-.45 1.85-.45 1.47 0 2.2.87.74.87.74 2.58"/><path fill="#082ad5" d="M1051.339-.095c21.515 0 40.555 16.184 50.408 30.084l67.878 100.006h-151.13l-76.493-.047c-17.374 0-31.94-12.376-35.415-28.75h-19.04c-17.421 0-31.987-12.377-35.462-28.751h-17.612c-17.421 0-32.034-12.376-35.462-28.75h-21.515c-19.992 0-36.271-16.28-36.271-36.272V-.048Zm-273.89 28.75h147.75V43.65H814.624a21.42 21.42 0 0 0 19.802 13.756h117.715V72.4h-84.443a21.42 21.42 0 0 0 19.85 13.757h96.865v14.994H922.2a21.42 21.42 0 0 0 19.85 13.756l76.445.048h122.808l-51.884-76.398c-6.188-8.806-21.182-23.658-38.08-23.658h-293.74a21.42 21.42 0 0 0 19.85 13.757" opacity=".32"/><rect width="363.668" height="145.77" x="439.161" y="-383.12" fill="none" rx="0" ry="0" transform="translate(498.66 383.7)"/><path fill="#0424d8" d="M991.635 114.785q-10.71 0-19.67-3.74-8.97-3.74-15.48-10.39-6.52-6.64-10.07-15.73-3.54-9.1-3.54-19.68 0-10.45 3.61-19.22t10.19-15.22 15.61-10q9.03-3.54 19.74-3.54 8.38 0 14.51 1.48t9.8 3.22q3.68 1.75 4.71 2.78l-5.67 12.12q-.91-.77-3.62-2.32t-7.54-2.84q-4.84-1.29-12.45-1.29-10.58 0-18.06 4.58t-11.48 12.32-4 17.16q0 10.96 4.38 19.41 4.39 8.45 12 13.16t17.29 4.71q5.54 0 11.28-1.42t9.74-4.77v-18.32h-19.48v-13.29h33.8v37.16q-4.25 5.41-13.41 9.54t-22.19 4.13m67.85-1.29h-14.45v-94.82h14.45Zm48.89 0h-27.09v-94.82h24.13q11.61 0 18.38 2.33 6.77 2.32 10.06 5.93t4.32 7.61 1.03 7.48q0 3.74-1.09 7.81-1.1 4.06-3.68 7.48t-7.09 5.48q9.67 2.45 13.74 8.45 4.06 6 4.06 13.35 0 5.03-1.16 10.19t-4.84 9.36q-3.68 4.19-11.03 6.77t-19.74 2.58m-12.9-82.56v27.99h12.26q6.71 0 10.32-2.26 3.61-2.25 5.09-5.86 1.49-3.62 1.49-7.62 0-3.35-1.49-6.12-1.48-2.78-5.28-4.45-3.81-1.68-10.78-1.68Zm0 39.47v30.96h14.84q6.58 0 10.51-1.54 3.94-1.55 6-4t2.71-5.36q.64-2.9.64-5.74 0-6.71-4.51-10.51-4.52-3.81-14.19-3.81Zm93.66 43.09h-27.09v-94.82h24.12q11.61 0 18.38 2.33 6.78 2.32 10.07 5.93 3.28 3.61 4.32 7.61 1.03 4 1.03 7.48 0 3.74-1.1 7.81-1.09 4.06-3.67 7.48t-7.1 5.48q9.68 2.45 13.74 8.45t4.06 13.35q0 5.03-1.16 10.19t-4.84 9.36q-3.67 4.19-11.02 6.77-7.36 2.58-19.74 2.58m-12.9-82.56v27.99h12.25q6.71 0 10.32-2.26 3.61-2.25 5.1-5.86 1.48-3.62 1.48-7.62 0-3.35-1.48-6.12-1.49-2.78-5.29-4.45-3.81-1.68-10.77-1.68Zm0 39.47v30.96h14.83q6.58 0 10.52-1.54 3.93-1.55 6-4 2.06-2.45 2.7-5.36.65-2.9.65-5.74 0-6.71-4.52-10.51-4.51-3.81-14.19-3.81Zm101.78 43.09h-14.45v-44.25l-32.89-50.57h17.28l22.83 37.41 22.84-37.41h17.15l-32.76 50.83Z"/><rect width="160" height="33.9" x="540.995" y="-327.185" fill="none" rx="0" ry="0" transform="translate(400 400)"/><path fill="#22b39c" d="M949.485 98.985q-2.16 0-3.82-.9-1.65-.89-2.58-2.72-.92-1.83-.92-4.62 0-2.91.97-4.76.98-1.86 2.69-2.75 1.72-.89 3.9-.89 1.2 0 2.32.24t1.84.61l-.73 2.03q-.74-.29-1.7-.53-.96-.23-1.79-.23-1.67 0-2.78.72-1.1.72-1.65 2.11t-.55 3.43q0 1.94.53 3.32.54 1.38 1.6 2.1 1.06.73 2.66.73 1.27 0 2.3-.27 1.02-.27 1.86-.64v2.17q-.81.41-1.79.63-.99.22-2.36.22m10.4-23.08v22.79h-2.45v-22.79Zm5.13 6.73h2.43v16.05h-2.43Zm1.24-6.01q.6 0 1.03.39.44.39.44 1.21 0 .81-.44 1.2-.43.4-1.03.4-.63 0-1.05-.4-.41-.39-.41-1.2 0-.82.41-1.21.42-.39 1.05-.39m12.75 22.36q-2.17 0-3.82-.9-1.66-.89-2.58-2.72t-.92-4.62q0-2.91.97-4.76.97-1.86 2.69-2.75 1.71-.89 3.9-.89 1.2 0 2.32.24t1.84.61l-.74 2.03q-.73-.29-1.69-.53-.96-.23-1.79-.23-1.67 0-2.78.72t-1.65 2.11q-.55 1.39-.55 3.43 0 1.94.53 3.32.54 1.38 1.6 2.1 1.06.73 2.66.73 1.27 0 2.3-.27 1.02-.27 1.86-.64v2.17q-.81.41-1.8.63t-2.35.22m7.94-23.08h2.42v11.84q0 .58-.05 1.43l-.07 1.48h.1q.31-.38.9-1.13.6-.74 1.01-1.2l5.33-5.68h2.86l-6.46 6.85 6.92 9.2h-2.93l-5.66-7.6-1.95 1.79v5.81h-2.42Zm28.74 21.08q.6 0 1.23-.1t1.03-.25v1.89q-.43.19-1.18.33-.76.13-1.48.13-1.27 0-2.31-.45t-1.66-1.52-.62-2.95v-9.53h-2.29v-1.18l2.3-.95.97-3.49h1.46v3.72h4.7v1.9h-4.7v9.45q0 1.51.7 2.26.69.74 1.85.74m19.35-6.35q0 1.98-.51 3.53t-1.48 2.62-2.34 1.63q-1.37.57-3.1.57-1.61 0-2.95-.57-1.34-.56-2.31-1.63-.98-1.07-1.51-2.62-.54-1.55-.54-3.53 0-2.64.9-4.49.89-1.86 2.55-2.83 1.67-.97 3.97-.97 2.19 0 3.84.98t2.57 2.83q.91 1.86.91 4.48m-12.22 0q0 1.93.52 3.35.51 1.42 1.58 2.2t2.75.78q1.67 0 2.75-.78t1.59-2.2.51-3.35q0-1.92-.51-3.32t-1.58-2.16-2.77-.76q-2.51 0-3.67 1.65-1.17 1.66-1.17 4.59m30.4-8.29q2.05 0 3.52.9 1.46.91 2.24 2.55.77 1.63.77 3.81v1.51h-11.09q.05 2.83 1.41 4.31t3.84 1.48q1.52 0 2.69-.28 1.18-.28 2.44-.82v2.14q-1.22.54-2.41.79-1.2.25-2.82.25-2.32 0-4.04-.95-1.72-.94-2.67-2.77-.96-1.83-.96-4.49 0-2.59.88-4.49.87-1.89 2.46-2.92 1.59-1.02 3.74-1.02m-.03 1.99q-1.95 0-3.11 1.27-1.15 1.28-1.37 3.56h8.49q-.01-1.43-.44-2.52-.43-1.1-1.31-1.7-.88-.61-2.26-.61m16.41 14.65q-3.05 0-4.83-2.08t-1.78-6.18q0-4.15 1.82-6.27 1.81-2.11 4.83-2.11 1.28 0 2.23.33.95.34 1.64.9.69.57 1.16 1.29h.17q-.06-.46-.12-1.25-.05-.79-.05-1.29v-6.43h2.43v22.79h-1.97l-.36-2.28h-.1q-.46.72-1.15 1.3-.7.59-1.66.93-.96.35-2.26.35m.38-2.02q2.58 0 3.65-1.47 1.06-1.46 1.06-4.35v-.44q0-3.06-1.01-4.7-1.02-1.64-3.7-1.64-2.24 0-3.36 1.72-1.11 1.72-1.11 4.69 0 2.96 1.11 4.57 1.1 1.62 3.36 1.62m12.25-14.33h2.43v16.05h-2.43Zm1.24-6.01q.6 0 1.04.39.43.39.43 1.21 0 .81-.43 1.2-.44.4-1.04.4-.63 0-1.04-.4-.42-.39-.42-1.2 0-.82.42-1.21.41-.39 1.04-.39m11.53 20.36q.6 0 1.23-.1t1.02-.25v1.89q-.42.19-1.18.33-.75.13-1.47.13-1.27 0-2.31-.45t-1.67-1.52q-.62-1.07-.62-2.95v-9.53h-2.28v-1.18l2.3-.95.96-3.49h1.47v3.72h4.7v1.9h-4.7v9.45q0 1.51.69 2.26.7.74 1.86.74"/></g><path fill="transparent" stroke="transparent" d="M715 0h570v180H715z"/></g></svg>